# xmcd
# 
# Track frame offsets:
#     182
#     13252
#     26912
#     59652
#     80805
#     91115
#     118522
#     137005
#     145722
#     157335
#     197075
#     225450
#     232477
#     244435
#     255420
#     266357
#     278500
# 
# Disc length: 4046
# 
# Revision: 0
# Processed by: cddbd v1.5.2PL0 Copyright (c) Steve Scherf et al.
# Submitted via: BonkEnc v1.0
# 
DISCID=f70fcc11
DTITLE=Derek Bailey - Domestic and Public Pieces
DYEAR=1977
DGENRE=Jazz
TTITLE0=Eight Domestic Pieces: Kew
TTITLE1=Eight Domestic Pieces: Unity Theatre
TTITLE2=Eight Domestic Pieces: Queue
TTITLE3=Eight Domestic Pieces: Cue
TTITLE4=Eight Domestic Pieces: Roots
TTITLE5=Eight Domestic Pieces: Virginal
TTITLE6=Eight Domestic Pieces: Praxis
TTITLE7=Eight Domestic Pieces: The Lost Chord
TTITLE8=Eight Public Pieces: First
TTITLE9=Eight Public Pieces: Second
TTITLE10=Eight Public Pieces: Third
TTITLE11=Eight Public Pieces: Fourth
TTITLE12=Eight Public Pieces: Fifth
TTITLE13=Eight Public Pieces: Sixth
TTITLE14=Eight Public Pieces: Seventh
TTITLE15=Eight Public Pieces: Eighth
TTITLE16=Anothr Domestic Piece: Happy Birthday to You
EXTD=YEAR: 1977
EXTT0=
EXTT1=
EXTT2=
EXTT3=
EXTT4=
EXTT5=
EXTT6=
EXTT7=
EXTT8=
EXTT9=
EXTT10=
EXTT11=
EXTT12=
EXTT13=
EXTT14=
EXTT15=
EXTT16=
PLAYORDER=
